<svg width="549" height="235" viewBox="0 0 549 235" fill="none" xmlns="http://www.w3.org/2000/svg">
<path d="M10 13H200L173.322 36.4277H39.3289C33.8061 36.4277 29.3289 40.9048 29.3289 46.4277V129.851C29.3289 133.656 33.4092 136.067 36.7416 134.231L200 44.2893V203C200 208.523 195.523 213 190 213H0L29.3289 187.057H163.322C168.845 187.057 173.322 182.579 173.322 177.057V96.0863C173.322 92.2961 169.27 89.884 165.938 91.6914L0 181.711V23C0 17.4772 4.47715 13 10 13Z" fill="white"/>
<rect x="200" y="213" width="41" height="22" fill="url(#paint0_linear_46_35)"/>
<rect x="200" y="213" width="41" height="22" fill="url(#paint1_linear_46_35)" fill-opacity="0.5"/>
<path d="M214 95.7C214.667 96.3667 215.867 97.0333 217.6 97.7C219.333 98.3667 221.167 98.7 223.1 98.7C225.167 98.7 227.1 98.5333 228.9 98.2C230.7 97.8 232.233 97.2 233.5 96.4C234.833 95.6 235.867 94.5667 236.6 93.3C237.333 91.9667 237.7 90.3667 237.7 88.5C237.7 86.1 237.067 84.0667 235.8 82.4C234.533 80.6667 232.967 79.1 231.1 77.7C229.233 76.3 227.167 74.9333 224.9 73.6C222.7 72.2 220.667 70.6333 218.8 68.9C216.933 67.1667 215.367 65.1333 214.1 62.8C212.833 60.4667 212.2 57.6 212.2 54.2C212.2 50.6667 212.9 47.5667 214.3 44.9C215.7 42.2333 217.633 40 220.1 38.2C222.567 36.4 225.5 35.0667 228.9 34.2C232.3 33.2667 236.033 32.8 240.1 32.8C244.167 32.8 247.867 33.1 251.2 33.7C254.6 34.2333 257.567 35.1 260.1 36.3C259.767 37.6333 259.333 39.1667 258.8 40.9C258.267 42.6333 257.667 44.3667 257 46.1C256.4 47.7667 255.767 49.3667 255.1 50.9C254.5 52.3667 253.967 53.6 253.5 54.6H249.4L247.7 40.9C246.767 40.3667 245.5 39.9667 243.9 39.7C242.367 39.4333 240.767 39.3 239.1 39.3C237.367 39.3 235.733 39.5 234.2 39.9C232.733 40.2333 231.433 40.8 230.3 41.6C229.233 42.3333 228.367 43.3 227.7 44.5C227.033 45.7 226.7 47.1333 226.7 48.8C226.7 51.1333 227.333 53.1667 228.6 54.9C229.933 56.6333 231.533 58.2333 233.4 59.7C235.333 61.1 237.433 62.5333 239.7 64C241.967 65.4 244.033 67 245.9 68.8C247.833 70.5333 249.433 72.5667 250.7 74.9C252.033 77.2333 252.7 80.0333 252.7 83.3C252.7 90.3667 250.067 95.8 244.8 99.6C239.6 103.333 232.133 105.2 222.4 105.2C220.267 105.2 218.1 105.067 215.9 104.8C213.767 104.533 211.733 104.167 209.8 103.7C207.867 103.233 206.167 102.733 204.7 102.2C203.233 101.667 202.167 101.1 201.5 100.5C201.9 98.9 202.4 97.2333 203 95.5C203.6 93.7 204.233 91.9333 204.9 90.2C205.567 88.4 206.233 86.7333 206.9 85.2C207.633 83.6 208.3 82.2 208.9 81H213L214 95.7ZM261.466 76.9C261.466 70.7667 262.4 65.0333 264.266 59.7C266.2 54.3 268.933 49.6333 272.466 45.7C276.066 41.7 280.433 38.5667 285.566 36.3C290.766 33.9667 296.633 32.8 303.166 32.8C307.633 32.8 311.6 33.4667 315.066 34.8C318.533 36.0667 321.466 37.9333 323.866 40.4C326.266 42.8 328.066 45.7333 329.266 49.2C330.533 52.6667 331.166 56.5667 331.166 60.9C331.166 66.3667 330.333 71.7667 328.666 77.1C327 82.3667 324.466 87.1 321.066 91.3C317.666 95.4333 313.4 98.8 308.266 101.4C303.2 103.933 297.233 105.2 290.366 105.2C285.766 105.2 281.666 104.5 278.066 103.1C274.466 101.633 271.433 99.6333 268.966 97.1C266.5 94.5667 264.633 91.5667 263.366 88.1C262.1 84.6333 261.466 80.9 261.466 76.9ZM278.466 78.8C278.466 85.4667 279.7 90.4667 282.166 93.8C284.7 97.0667 288.1 98.7 292.366 98.7C296.166 98.7 299.433 97.4667 302.166 95C304.9 92.5333 307.166 89.4 308.966 85.6C310.766 81.7333 312.066 77.4333 312.866 72.7C313.733 67.9 314.166 63.2 314.166 58.6C314.166 52.6667 313.133 47.9667 311.066 44.5C309.066 41.0333 305.733 39.3 301.066 39.3C298.466 39.3 296.1 39.9 293.966 41.1C291.9 42.2333 290 43.8 288.266 45.8C286.6 47.8 285.133 50.1333 283.866 52.8C282.666 55.4 281.666 58.1667 280.866 61.1C280.066 64.0333 279.466 67.0333 279.066 70.1C278.666 73.1 278.466 76 278.466 78.8ZM343.064 34H375.864L375.064 37.8C373.597 38.5333 371.931 39.1667 370.064 39.7C368.264 40.1667 366.531 40.5 364.864 40.7L352.864 97.5H372.164L382.564 79.6H386.764C386.764 81.1333 386.664 82.9333 386.464 85C386.264 87.0667 385.997 89.2333 385.664 91.5C385.331 93.7667 384.931 96 384.464 98.2C384.064 100.4 383.631 102.333 383.164 104H328.264L328.964 100.2C330.697 99.4 332.297 98.7667 333.764 98.3C335.231 97.8333 336.597 97.5 337.864 97.3L349.864 40.7C348.397 40.4333 346.997 40.0667 345.664 39.6C344.331 39.1333 343.197 38.5333 342.264 37.8L343.064 34ZM418.179 104H386.979L387.679 100.2C390.812 98.7333 393.746 97.7667 396.479 97.3L408.479 40.7C407.146 40.5 405.812 40.1667 404.479 39.7C403.212 39.1667 402.046 38.5333 400.979 37.8L401.779 34H432.979L432.179 37.8C430.846 38.5333 429.379 39.1667 427.779 39.7C426.246 40.1667 424.812 40.5 423.479 40.7L411.479 97.3C412.746 97.5667 414.046 97.9333 415.379 98.4C416.712 98.8667 417.879 99.4667 418.879 100.2L418.179 104ZM422.893 104L423.593 100.2C424.86 99.5333 426.26 98.9667 427.793 98.5C429.326 97.9667 430.893 97.5667 432.493 97.3L444.493 40.7C442.96 40.3667 441.526 39.9667 440.193 39.5C438.926 38.9667 437.826 38.4 436.893 37.8L437.693 34H449.293C450.426 34 451.826 33.9667 453.493 33.9C455.226 33.8333 456.993 33.7667 458.793 33.7C460.66 33.5667 462.426 33.4667 464.093 33.4C465.826 33.2667 467.293 33.2 468.493 33.2C474.093 33.2 478.826 33.8 482.693 35C486.626 36.2 489.793 37.9 492.193 40.1C494.66 42.3 496.426 44.9333 497.493 48C498.626 51 499.193 54.3333 499.193 58C499.193 61.8 498.86 65.6 498.193 69.4C497.526 73.1333 496.426 76.7333 494.893 80.2C493.36 83.6667 491.393 86.9 488.993 89.9C486.593 92.9 483.626 95.5333 480.093 97.8C476.626 100 472.593 101.733 467.993 103C463.393 104.267 458.126 104.9 452.193 104.9C451.326 104.9 450.126 104.833 448.593 104.7C447.126 104.633 445.526 104.533 443.793 104.4C442.06 104.333 440.326 104.233 438.593 104.1C436.926 104.033 435.46 104 434.193 104H422.893ZM466.193 39.7C464.993 39.7 463.86 39.7333 462.793 39.8C461.726 39.8667 460.726 39.9667 459.793 40.1L447.493 98C448.493 98.1333 449.626 98.2333 450.893 98.3C452.16 98.3667 453.16 98.4 453.893 98.4C459.293 98.4 463.826 97.1333 467.493 94.6C471.16 92 474.126 88.7 476.393 84.7C478.66 80.6333 480.26 76.1333 481.193 71.2C482.193 66.2667 482.693 61.4333 482.693 56.7C482.693 53.9667 482.426 51.5333 481.893 49.4C481.36 47.2667 480.46 45.5 479.193 44.1C477.926 42.6333 476.226 41.5333 474.093 40.8C471.96 40.0667 469.326 39.7 466.193 39.7Z" fill="white"/>
<path d="M518.1 196H548.4L547.7 192.2C546.367 191.533 544.933 190.967 543.4 190.5C541.8 189.967 540.267 189.567 538.8 189.3L526.8 132.7C528.333 132.433 529.767 132.033 531.1 131.5C532.433 130.967 533.533 130.4 534.4 129.8L533.6 126H503.3L504.1 129.8C505.1 130.533 506.3 131.133 507.7 131.6C509.1 132.067 510.467 132.433 511.8 132.7L517 156.9H490.5L485.3 132.7C488.167 131.967 490.333 131 491.8 129.8L491 126H460.7L461.5 129.8C462.767 130.533 464.2 131.167 465.8 131.7C467.333 132.167 468.833 132.5 470.3 132.7L482.3 189.3C480.833 189.567 479.467 189.967 478.2 190.5C476.867 191.033 475.733 191.6 474.8 192.2L475.5 196H505.8L505.1 192.2C503.967 191.6 502.733 191.033 501.4 190.5C500.067 189.967 498.7 189.567 497.3 189.3L491.9 163.4H518.4L523.8 189.3C521.533 189.767 519.4 190.733 517.4 192.2L518.1 196ZM463.537 168.9C463.537 162.767 462.604 157.033 460.737 151.7C458.804 146.3 456.071 141.633 452.537 137.7C448.937 133.7 444.571 130.567 439.437 128.3C434.237 125.967 428.371 124.8 421.837 124.8C417.371 124.8 413.404 125.467 409.937 126.8C406.471 128.067 403.537 129.933 401.137 132.4C398.737 134.8 396.937 137.733 395.737 141.2C394.471 144.667 393.837 148.567 393.837 152.9C393.837 158.367 394.671 163.767 396.337 169.1C398.004 174.367 400.537 179.1 403.937 183.3C407.337 187.433 411.604 190.8 416.737 193.4C421.804 195.933 427.771 197.2 434.637 197.2C439.237 197.2 443.337 196.5 446.937 195.1C450.537 193.633 453.571 191.633 456.037 189.1C458.504 186.567 460.371 183.567 461.637 180.1C462.904 176.633 463.537 172.9 463.537 168.9ZM446.537 170.8C446.537 177.467 445.304 182.467 442.837 185.8C440.304 189.067 436.904 190.7 432.637 190.7C428.837 190.7 425.571 189.467 422.837 187C420.104 184.533 417.837 181.4 416.037 177.6C414.237 173.733 412.937 169.433 412.137 164.7C411.271 159.9 410.837 155.2 410.837 150.6C410.837 144.667 411.871 139.967 413.937 136.5C415.937 133.033 419.271 131.3 423.937 131.3C426.537 131.3 428.904 131.9 431.037 133.1C433.104 134.233 435.004 135.8 436.737 137.8C438.404 139.8 439.871 142.133 441.137 144.8C442.337 147.4 443.337 150.167 444.137 153.1C444.937 156.033 445.537 159.033 445.937 162.1C446.337 165.1 446.537 168 446.537 170.8ZM383.14 126H352.34L353.14 129.8C355.54 131.2 358.273 132.167 361.34 132.7L369.24 170C370.573 176.533 370.073 181.267 367.74 184.2C365.407 187.133 361.74 188.6 356.74 188.6C352.073 188.6 348.173 187.267 345.04 184.6C341.907 181.867 339.64 177.233 338.24 170.7L330.34 133.2C331.873 132.867 333.407 132.4 334.94 131.8C336.407 131.2 337.573 130.533 338.44 129.8L337.64 126H312.84L313.64 129.8C314.84 130.667 316.273 131.367 317.94 131.9C319.54 132.433 321.107 132.867 322.64 133.2L330.64 170.8C332.44 179.4 335.74 185.9 340.54 190.3C345.273 194.7 352.073 196.9 360.94 196.9C370.473 196.9 377.173 194.4 381.04 189.4C384.84 184.4 385.807 177.567 383.94 168.9L376.34 132.7C377.673 132.433 379.073 132.067 380.54 131.6C381.94 131.133 383.073 130.533 383.94 129.8L383.14 126ZM308.855 187.7C308.189 188.367 306.989 189.033 305.255 189.7C303.522 190.367 301.689 190.7 299.755 190.7C297.689 190.7 295.755 190.533 293.955 190.2C292.155 189.8 290.622 189.2 289.355 188.4C288.022 187.6 286.989 186.567 286.255 185.3C285.522 183.967 285.155 182.367 285.155 180.5C285.155 178.1 285.789 176.067 287.055 174.4C288.322 172.667 289.889 171.1 291.755 169.7C293.622 168.3 295.689 166.933 297.955 165.6C300.155 164.2 302.189 162.633 304.055 160.9C305.922 159.167 307.489 157.133 308.755 154.8C310.022 152.467 310.655 149.6 310.655 146.2C310.655 142.667 309.955 139.567 308.555 136.9C307.155 134.233 305.222 132 302.755 130.2C300.289 128.4 297.355 127.067 293.955 126.2C290.555 125.267 286.822 124.8 282.755 124.8C278.689 124.8 274.989 125.1 271.655 125.7C268.255 126.233 265.289 127.1 262.755 128.3C263.089 129.633 263.522 131.167 264.055 132.9C264.589 134.633 265.189 136.367 265.855 138.1C266.455 139.767 267.089 141.367 267.755 142.9C268.355 144.367 268.889 145.6 269.355 146.6H273.455L275.155 132.9C276.089 132.367 277.355 131.967 278.955 131.7C280.489 131.433 282.089 131.3 283.755 131.3C285.489 131.3 287.122 131.5 288.655 131.9C290.122 132.233 291.422 132.8 292.555 133.6C293.622 134.333 294.489 135.3 295.155 136.5C295.822 137.7 296.155 139.133 296.155 140.8C296.155 143.133 295.522 145.167 294.255 146.9C292.922 148.633 291.322 150.233 289.455 151.7C287.522 153.1 285.422 154.533 283.155 156C280.889 157.4 278.822 159 276.955 160.8C275.022 162.533 273.422 164.567 272.155 166.9C270.822 169.233 270.155 172.033 270.155 175.3C270.155 182.367 272.789 187.8 278.055 191.6C283.255 195.333 290.722 197.2 300.455 197.2C302.589 197.2 304.755 197.067 306.955 196.8C309.089 196.533 311.122 196.167 313.055 195.7C314.989 195.233 316.689 194.733 318.155 194.2C319.622 193.667 320.689 193.1 321.355 192.5C320.955 190.9 320.455 189.233 319.855 187.5C319.255 185.7 318.622 183.933 317.955 182.2C317.289 180.4 316.622 178.733 315.955 177.2C315.222 175.6 314.555 174.2 313.955 173H309.855L308.855 187.7ZM202.289 126C202.956 129 203.789 132.1 204.789 135.3C205.789 138.5 206.889 141.5 208.089 144.3H212.289L214.389 132.5H233.089L238.289 157H225.989L219.989 149.3H216.889C217.222 152.567 217.822 156.2 218.689 160.2C219.489 164.2 220.422 167.933 221.489 171.4H224.689L227.389 163.5H239.689L245.089 189.5H225.689L217.689 176.8H213.489C213.489 178 213.556 179.4 213.689 181C213.756 182.6 213.889 184.267 214.089 186C214.222 187.733 214.422 189.467 214.689 191.2C214.956 192.933 215.256 194.533 215.589 196H269.689L268.989 192.2C267.656 191.6 266.256 191.033 264.789 190.5C263.256 189.967 261.689 189.567 260.089 189.3L248.089 132.7C249.422 132.433 250.756 132.067 252.089 131.6C253.422 131.067 254.622 130.467 255.689 129.8L254.889 126H202.289Z" fill="white"/>
<defs>
<linearGradient id="paint0_linear_46_35" x1="204.988" y1="201.851" x2="198.93" y2="245.435" gradientUnits="userSpaceOnUse">
<stop stop-color="#0E40F2"/>
<stop offset="1" stop-color="#D8E1FE" stop-opacity="0"/>
</linearGradient>
<linearGradient id="paint1_linear_46_35" x1="244.102" y1="235" x2="236.602" y2="191.278" gradientUnits="userSpaceOnUse">
<stop stop-color="#09FF98"/>
<stop offset="0.537297" stop-color="#A109FF"/>
<stop offset="1" stop-color="#C37FED" stop-opacity="0"/>
</linearGradient>
</defs>
</svg>
