<svg width="496" height="269" viewBox="0 0 496 269" fill="none" xmlns="http://www.w3.org/2000/svg">
<g opacity="0.25">
<path d="M70 200C70 89.5431 159.543 0 270 0H403V237C403 239.761 400.761 242 398 242H75C72.2386 242 70 239.761 70 237V200Z" fill="url(#paint0_linear_20_21)"/>
<path d="M70 200C70 89.5431 159.543 0 270 0H403V237C403 239.761 400.761 242 398 242H75C72.2386 242 70 239.761 70 237V200Z" fill="url(#paint1_linear_20_21)" fill-opacity="0.8"/>
</g>
<path d="M141.894 223.175C141.894 224.686 141.611 225.725 141.044 226.292C140.572 226.764 139.58 227 138.069 227H130.562V171.332C130.562 168.405 130.184 166.327 129.429 165.1C128.673 163.872 126.832 163.258 123.905 163.258H106.482V223.175C106.482 224.686 106.199 225.725 105.632 226.292C105.16 226.764 104.168 227 102.657 227H95.15V131.671C95.15 130.16 95.3861 129.168 95.8582 128.696C96.4248 128.129 97.4636 127.846 98.9745 127.846H106.482V163.258C107.048 160.52 107.898 158.489 109.032 157.167C110.259 155.751 112.242 155.043 114.981 155.043H128.437C133.348 155.043 136.795 156.081 138.778 158.159C140.855 160.142 141.894 163.589 141.894 168.499V223.175ZM159.878 168.499C159.878 163.589 160.869 160.142 162.852 158.159C164.93 156.081 168.424 155.043 173.334 155.043H193.165C198.076 155.043 201.522 156.081 203.505 158.159C205.583 160.142 206.622 163.589 206.622 168.499V213.543C206.622 218.454 205.583 221.948 203.505 224.025C201.522 226.008 198.076 227 193.165 227H173.334C168.424 227 164.93 226.008 162.852 224.025C160.869 221.948 159.878 218.454 159.878 213.543V168.499ZM177.867 163.258C174.94 163.258 173.098 163.872 172.343 165.1C171.587 166.327 171.21 168.405 171.21 171.332V210.71C171.21 213.638 171.587 215.715 172.343 216.943C173.098 218.171 174.94 218.784 177.867 218.784H188.632C191.56 218.784 193.401 218.171 194.157 216.943C194.912 215.715 195.29 213.638 195.29 210.71V171.332C195.29 168.405 194.912 166.327 194.157 165.1C193.401 163.872 191.56 163.258 188.632 163.258H177.867ZM260.031 227V158.867C260.031 157.356 260.267 156.365 260.739 155.893C261.306 155.326 262.345 155.043 263.855 155.043H271.363V223.175C271.363 224.686 271.079 225.725 270.513 226.292C270.041 226.764 269.049 227 267.538 227H260.031ZM224.619 158.867C224.619 157.356 224.855 156.365 225.327 155.893C225.894 155.326 226.932 155.043 228.443 155.043H235.951V210.71C235.951 213.638 236.328 215.715 237.084 216.943C237.839 218.171 239.681 218.784 242.608 218.784H254.365V223.175C254.365 224.686 254.129 225.725 253.657 226.292C253.279 226.764 252.335 227 250.824 227H238.075C233.165 227 229.671 226.008 227.593 224.025C225.61 221.948 224.619 218.454 224.619 213.543V158.867ZM300.682 195.129C298.227 195.129 296.196 194.94 294.591 194.563C293.08 194.185 291.852 193.524 290.908 192.579C290.058 191.541 289.444 190.219 289.067 188.613C288.783 187.008 288.642 184.978 288.642 182.522V168.499C288.642 163.589 289.633 160.142 291.616 158.159C293.694 156.081 297.188 155.043 302.098 155.043H321.079C322.59 155.043 323.534 155.326 323.912 155.893C324.384 156.365 324.62 157.356 324.62 158.867V163.258H305.923C302.995 163.258 301.154 163.872 300.398 165.1C299.643 166.327 299.265 168.405 299.265 171.332V178.84C299.265 180.539 299.313 181.956 299.407 183.089C299.596 184.128 299.926 184.93 300.398 185.497C300.871 186.064 301.532 186.441 302.382 186.63C303.326 186.819 304.506 186.914 305.923 186.914H313.997C316.452 186.914 318.435 187.102 319.946 187.48C321.551 187.858 322.779 188.566 323.629 189.605C324.573 190.549 325.187 191.824 325.47 193.429C325.848 195.035 326.037 197.065 326.037 199.52V213.543C326.037 218.454 324.998 221.948 322.921 224.025C320.938 226.008 317.491 227 312.58 227H292.183C290.672 227 289.68 226.764 289.208 226.292C288.831 225.725 288.642 224.686 288.642 223.175V218.784H308.756C311.683 218.784 313.525 218.171 314.28 216.943C315.035 215.715 315.413 213.638 315.413 210.71V203.203C315.413 200.276 315.035 198.198 314.28 196.971C313.525 195.743 311.683 195.129 308.756 195.129H300.682ZM380.996 218.784V223.175C380.996 224.686 380.76 225.725 380.288 226.292C379.91 226.764 378.966 227 377.455 227H356.066C351.156 227 347.662 226.008 345.584 224.025C343.601 221.948 342.61 218.454 342.61 213.543V168.499C342.61 163.589 343.601 160.142 345.584 158.159C347.662 156.081 351.156 155.043 356.066 155.043H371.648C376.558 155.043 380.005 156.081 381.988 158.159C384.065 160.142 385.104 163.589 385.104 168.499V184.364C385.104 189.274 384.065 192.768 381.988 194.846C380.005 196.829 376.558 197.82 371.648 197.82H363.149C361.638 197.82 360.646 197.584 360.174 197.112C359.796 196.546 359.608 195.507 359.608 193.996V189.605H367.823C370.751 189.605 372.592 188.991 373.347 187.763C374.103 186.536 374.481 184.458 374.481 181.531V170.624C374.481 167.697 374.008 165.761 373.064 164.816C372.12 163.778 370.184 163.258 367.257 163.258H361.166C358.049 163.258 356.066 163.825 355.216 164.958C354.367 165.997 353.942 168.121 353.942 171.332V210.71C353.942 213.638 354.319 215.715 355.075 216.943C355.83 218.171 357.672 218.784 360.599 218.784H380.996Z" fill="url(#paint2_linear_20_21)"/>
<path d="M172.816 108.129C170.361 108.129 168.33 107.94 166.725 107.563C165.214 107.185 163.986 106.524 163.042 105.579C162.192 104.541 161.578 103.219 161.201 101.613C160.917 100.008 160.776 97.9776 160.776 95.5224V81.4992C160.776 76.5887 161.767 73.142 163.75 71.1589C165.828 69.0814 169.322 68.0426 174.232 68.0426H193.213C194.724 68.0426 195.668 68.3259 196.046 68.8925C196.518 69.3647 196.754 70.3562 196.754 71.8671V76.2582H178.057C175.129 76.2582 173.288 76.872 172.533 78.0997C171.777 79.3273 171.399 81.4048 171.399 84.3322V91.8395C171.399 93.5393 171.447 94.9558 171.541 96.089C171.73 97.1278 172.06 97.9304 172.533 98.497C173.005 99.0636 173.666 99.4413 174.516 99.6302C175.46 99.8191 176.64 99.9135 178.057 99.9135H186.131C188.586 99.9135 190.569 100.102 192.08 100.48C193.685 100.858 194.913 101.566 195.763 102.605C196.707 103.549 197.321 104.824 197.604 106.429C197.982 108.035 198.171 110.065 198.171 112.52V126.543C198.171 131.454 197.132 134.948 195.055 137.025C193.072 139.008 189.625 140 184.714 140H164.317C162.806 140 161.814 139.764 161.342 139.292C160.965 138.725 160.776 137.686 160.776 136.175V131.784H180.89C183.817 131.784 185.659 131.171 186.414 129.943C187.17 128.715 187.547 126.638 187.547 123.71V116.203C187.547 113.276 187.17 111.198 186.414 109.971C185.659 108.743 183.817 108.129 180.89 108.129H172.816ZM214.744 81.4992C214.744 76.5887 215.735 73.142 217.718 71.1589C219.796 69.0814 223.29 68.0426 228.2 68.0426H248.031C252.942 68.0426 256.388 69.0814 258.371 71.1589C260.449 73.142 261.488 76.5887 261.488 81.4992V126.543C261.488 131.454 260.449 134.948 258.371 137.025C256.388 139.008 252.942 140 248.031 140H228.2C223.29 140 219.796 139.008 217.718 137.025C215.735 134.948 214.744 131.454 214.744 126.543V81.4992ZM232.733 76.2582C229.806 76.2582 227.964 76.872 227.209 78.0997C226.453 79.3273 226.076 81.4048 226.076 84.3322V123.71C226.076 126.638 226.453 128.715 227.209 129.943C227.964 131.171 229.806 131.784 232.733 131.784H243.498C246.426 131.784 248.267 131.171 249.023 129.943C249.778 128.715 250.156 126.638 250.156 123.71V84.3322C250.156 81.4048 249.778 79.3273 249.023 78.0997C248.267 76.872 246.426 76.2582 243.498 76.2582H232.733ZM291.808 40.8461V136.175C291.808 137.686 291.525 138.725 290.958 139.292C290.486 139.764 289.495 140 287.984 140H280.476V44.6706C280.476 43.1597 280.712 42.1682 281.185 41.696C281.751 41.1294 282.79 40.8461 284.301 40.8461H291.808ZM310.322 52.8862C310.322 51.3753 310.558 50.3838 311.03 49.9116C311.597 49.345 312.636 49.0617 314.147 49.0617H322.787V56.5691C322.787 58.08 322.504 59.1188 321.937 59.6854C321.465 60.1575 320.474 60.3936 318.963 60.3936H310.322V52.8862ZM322.221 68.0426V136.175C322.221 137.686 321.937 138.725 321.371 139.292C320.899 139.764 319.907 140 318.396 140H310.889V71.8671C310.889 70.3562 311.125 69.3647 311.597 68.8925C312.164 68.3259 313.202 68.0426 314.713 68.0426H322.221ZM387.09 40.8461V136.175C387.09 137.686 386.807 138.725 386.24 139.292C385.768 139.764 384.776 140 383.265 140H375.758V44.6706C375.758 43.1597 375.994 42.1682 376.466 41.696C377.033 41.1294 378.072 40.8461 379.583 40.8461H387.09ZM353.803 140C348.892 140 345.398 139.008 343.321 137.025C341.338 134.948 340.346 131.454 340.346 126.543V81.4992C340.346 76.5887 341.338 73.142 343.321 71.1589C345.398 69.0814 348.892 68.0426 353.803 68.0426H367.259C369.998 68.0426 371.934 68.7509 373.067 70.1673C374.294 71.4894 375.192 73.5197 375.758 76.2582H358.335C355.408 76.2582 353.567 76.872 352.811 78.0997C352.056 79.3273 351.678 81.4048 351.678 84.3322V123.71C351.678 126.638 352.056 128.715 352.811 129.943C353.567 131.171 355.408 131.784 358.335 131.784H370.092V136.175C370.092 137.686 369.856 138.725 369.384 139.292C369.006 139.764 368.062 140 366.551 140H353.803Z" fill="url(#paint3_linear_20_21)"/>
<rect x="403" y="35" width="46" height="192" fill="url(#paint4_linear_20_21)"/>
<rect x="403" y="35" width="46" height="192" fill="url(#paint5_linear_20_21)" fill-opacity="0.5"/>
<rect x="449" y="54" width="25" height="155" fill="url(#paint6_linear_20_21)"/>
<rect x="474" y="76" width="22" height="114" fill="url(#paint7_linear_20_21)"/>
<rect x="474" y="76" width="22" height="114" fill="url(#paint8_linear_20_21)" fill-opacity="0.2"/>
<defs>
<linearGradient id="paint0_linear_20_21" x1="110.509" y1="-122.635" x2="21.6664" y2="349.324" gradientUnits="userSpaceOnUse">
<stop stop-color="#0E40F2"/>
<stop offset="1" stop-color="#D8E1FE" stop-opacity="0"/>
</linearGradient>
<linearGradient id="paint1_linear_20_21" x1="245.693" y1="-25.5859" x2="148.297" y2="346.108" gradientUnits="userSpaceOnUse">
<stop offset="0.04168" stop-color="#09FF98"/>
<stop offset="0.654181" stop-color="#A109FF"/>
<stop offset="1" stop-color="#C37FED" stop-opacity="0"/>
</linearGradient>
<linearGradient id="paint2_linear_20_21" x1="400.047" y1="27.6913" x2="218.95" y2="450.253" gradientUnits="userSpaceOnUse">
<stop offset="0.0180011" stop-color="#FF9900" stop-opacity="0.7"/>
<stop offset="0.531902" stop-color="#611717" stop-opacity="0.89"/>
<stop offset="1" stop-color="#FFE605" stop-opacity="0.4"/>
</linearGradient>
<linearGradient id="paint3_linear_20_21" x1="217.915" y1="245.141" x2="328.539" y2="-206.241" gradientUnits="userSpaceOnUse">
<stop offset="0.215653" stop-color="#2F1C7E"/>
<stop offset="0.408551" stop-color="#DF16D7" stop-opacity="0.683189"/>
<stop offset="0.992973" stop-color="#A13AD1" stop-opacity="0.23"/>
</linearGradient>
<linearGradient id="paint4_linear_20_21" x1="408.596" y1="-62.2973" x2="215.327" y2="116.464" gradientUnits="userSpaceOnUse">
<stop stop-color="#0E40F2"/>
<stop offset="1" stop-color="#D8E1FE" stop-opacity="0"/>
</linearGradient>
<linearGradient id="paint5_linear_20_21" x1="452.481" y1="227" x2="263.979" y2="85.7403" gradientUnits="userSpaceOnUse">
<stop stop-color="#09FF98"/>
<stop offset="0.537297" stop-color="#A109FF"/>
<stop offset="1" stop-color="#C37FED" stop-opacity="0"/>
</linearGradient>
<linearGradient id="paint6_linear_20_21" x1="457.826" y1="296.529" x2="576.882" y2="266.206" gradientUnits="userSpaceOnUse">
<stop offset="0.215653" stop-color="#2F1C7E"/>
<stop offset="0.408551" stop-color="#DF16D7" stop-opacity="0.683189"/>
<stop offset="0.992973" stop-color="#A13AD1" stop-opacity="0.23"/>
</linearGradient>
<linearGradient id="paint7_linear_20_21" x1="476.676" y1="18.2297" x2="366.385" y2="100.4" gradientUnits="userSpaceOnUse">
<stop stop-color="#0E40F2"/>
<stop offset="1" stop-color="#D8E1FE" stop-opacity="0"/>
</linearGradient>
<linearGradient id="paint8_linear_20_21" x1="497.665" y1="190" x2="394.48" y2="127.716" gradientUnits="userSpaceOnUse">
<stop stop-color="#09FF98"/>
<stop offset="0.537297" stop-color="#A109FF"/>
<stop offset="1" stop-color="#C37FED" stop-opacity="0"/>
</linearGradient>
</defs>
</svg>
