<svg width="241" height="222" viewBox="0 0 241 222" fill="none" xmlns="http://www.w3.org/2000/svg">
<path d="M10 0H200L173.322 23.4277H39.3289C33.8061 23.4277 29.3289 27.9048 29.3289 33.4277V116.851C29.3289 120.656 33.4092 123.067 36.7416 121.231L200 31.2893V190C200 195.523 195.523 200 190 200H0L29.3289 174.057H163.322C168.845 174.057 173.322 169.579 173.322 164.057V83.0863C173.322 79.2961 169.27 76.884 165.938 78.6914L0 168.711V10C0 4.47715 4.47715 0 10 0Z" fill="black"/>
<rect x="200" y="200" width="41" height="22" fill="url(#paint0_linear_51_3)"/>
<rect x="200" y="200" width="41" height="22" fill="url(#paint1_linear_51_3)" fill-opacity="0.5"/>
<defs>
<linearGradient id="paint0_linear_51_3" x1="204.988" y1="188.851" x2="198.93" y2="232.435" gradientUnits="userSpaceOnUse">
<stop stop-color="#0E40F2"/>
<stop offset="1" stop-color="#D8E1FE" stop-opacity="0"/>
</linearGradient>
<linearGradient id="paint1_linear_51_3" x1="244.102" y1="222" x2="236.602" y2="178.278" gradientUnits="userSpaceOnUse">
<stop stop-color="#09FF98"/>
<stop offset="0.537297" stop-color="#A109FF"/>
<stop offset="1" stop-color="#C37FED" stop-opacity="0"/>
</linearGradient>
</defs>
</svg>
